<svg width="308" height="313" viewBox="0 0 308 313" fill="none" xmlns="http://www.w3.org/2000/svg">
<path fill-rule="evenodd" clip-rule="evenodd" d="M287.147 156.118V156.118L287.275 157.45L287.656 158.789L288.285 160.144L289.152 161.522L290.24 162.929L291.531 164.371L292.997 165.854L294.608 167.379L296.325 168.949L298.102 170.562L299.889 172.215L301.629 173.902L303.259 175.613L304.718 177.337L305.942 179.06L306.873 180.765L307.458 182.435L307.659 184.053L307.448 185.601L306.818 187.066L305.776 188.437L304.35 189.707L302.581 190.873L300.526 191.94L298.252 192.914L295.829 193.809L293.334 194.64L290.842 195.426L288.425 196.189L286.151 196.952L284.087 197.742L282.291 198.584L280.821 199.507L279.734 200.543L279.086 201.725L278.908 203.079L279.148 204.602L279.742 206.283L280.626 208.108L281.738 210.063L283.014 212.128L284.389 214.281L285.793 216.494L287.157 218.737L288.412 220.976L289.491 223.174L290.33 225.295L290.877 227.301L291.088 229.161L290.935 230.846L290.406 232.336L289.503 233.618L288.246 234.689L286.667 235.555L284.81 236.229L282.727 236.731L280.473 237.09L278.107 237.333L275.684 237.494L273.255 237.605L270.868 237.697L268.562 237.8L266.371 237.943L264.323 238.15L262.439 238.443L260.736 238.842L259.223 239.365L257.907 240.025L256.791 240.835L255.874 241.802L255.153 242.936L254.618 244.239L254.262 245.713L254.069 247.357L254.025 249.164L254.108 251.127L254.297 253.23L254.562 255.455L254.874 257.777L255.199 260.165L255.497 262.582L255.73 264.987L255.856 267.331L255.835 269.565L255.628 271.638L255.201 273.499L254.529 275.104L253.592 276.414L252.385 277.403L250.912 278.057L249.187 278.376L247.239 278.373L245.102 278.078L242.819 277.531L240.435 276.782L237.998 275.887L235.555 274.909L233.151 273.91L230.827 272.953L228.619 272.101L226.56 271.414L224.677 270.951L222.998 270.772L221.543 270.935L220.334 271.504L219.371 272.505L218.61 273.895L218.012 275.624L217.536 277.64L217.144 279.893L216.8 282.324L216.469 284.874L216.116 287.477L215.706 290.064L215.21 292.564L214.6 294.906L213.853 297.023L212.952 298.854L211.887 300.348L210.656 301.469L209.264 302.196L207.721 302.524L206.046 302.465L204.262 302.049L202.392 301.316L200.464 300.317L198.504 299.108L196.535 297.751L194.579 296.304L192.654 294.826L190.776 293.37L188.954 291.983L187.197 290.708L185.508 289.58L183.89 288.629L182.34 287.879L180.857 287.349L179.436 287.054L178.072 287.003L176.756 287.202L175.481 287.653L174.24 288.354L173.023 289.299L171.821 290.477L170.626 291.873L169.427 293.465L168.216 295.226L166.985 297.124L165.726 299.118L164.433 301.161L163.1 303.199L161.725 305.174L160.307 307.023L158.847 308.68L157.349 310.082L155.821 311.171L154.271 311.897L152.71 312.222L151.151 312.124L149.605 311.598L148.085 310.658L146.602 309.335L145.164 307.677L143.776 305.744L142.441 303.605L141.159 301.334L139.925 299.011L138.732 296.71L137.572 294.507L136.431 292.472L135.295 290.67L134.147 289.166L132.968 288.02L131.737 287.293L130.43 287.045L129.031 287.278L127.537 287.927L125.95 288.927L124.273 290.214L122.509 291.725L120.67 293.39L118.767 295.141L116.815 296.904L114.835 298.606L112.848 300.171L110.881 301.529L108.958 302.615L107.106 303.374L105.35 303.763L103.709 303.755L102.201 303.34L100.836 302.527L99.6178 301.338L98.5448 299.813L97.6087 298L96.7959 295.956L96.0891 293.743L95.4677 291.422L94.9093 289.052L94.3908 286.688L93.8893 284.378L93.3826 282.166L92.8497 280.087L92.2713 278.169L91.6298 276.436L90.9091 274.905L90.0953 273.586L89.1761 272.488L88.1409 271.614L86.981 270.962L85.6898 270.529L84.2625 270.307L82.697 270.285L80.9937 270.448L79.1561 270.778L77.1915 271.252L75.1111 271.842L72.9308 272.518L70.6718 273.242L68.3603 273.974L66.0278 274.669L63.7109 275.278L61.45 275.754L59.2884 276.047L57.27 276.113L55.4369 275.912L53.8274 275.415L52.4724 274.6L51.3935 273.462L50.6012 272.008L50.0936 270.258L49.8563 268.246L49.8634 266.014L50.0788 263.613L50.4586 261.099L50.9529 258.53L51.5087 255.961L52.0711 253.446L52.585 251.036L52.996 248.774L53.2503 246.702L53.2946 244.857L53.075 243.273L52.5352 241.982L51.62 241.012L50.3317 240.344L48.712 239.923L46.8026 239.703L44.6472 239.636L42.2925 239.676L39.7891 239.778L37.1925 239.895L34.5624 239.982L31.9623 239.995L29.4571 239.893L27.1114 239.638L24.986 239.197L23.1347 238.547L21.6013 237.674L20.4165 236.57L19.5963 235.242L19.1409 233.703L19.0355 231.977L19.2514 230.091L19.7487 228.08L20.4792 225.978L21.3897 223.821L22.4247 221.642L23.5293 219.471L24.6513 217.335L25.7424 215.255L26.7593 213.25L27.6641 211.331L28.4243 209.509L29.0129 207.788L29.4077 206.171L29.5912 204.657L29.5501 203.244L29.275 201.926L28.7605 200.697L28.0047 199.55L27.0098 198.475L25.7818 197.463L24.3316 196.502L22.6746 195.58L20.8322 194.684L18.8317 193.8L16.7069 192.915L14.4987 192.013L12.2549 191.081L10.0296 190.105L7.88219 189.071L5.8758 187.968L4.07449 186.789L2.54023 185.526L1.32928 184.178L0.48836 182.747L0.0511347 181.238L0.0353581 179.661L0.441091 178.029L1.25025 176.355L2.42755 174.658L3.92265 172.952L5.67329 171.254L7.6088 169.578L9.65369 167.934L11.7309 166.332L13.7642 164.776L15.6801 163.269L17.4084 161.809L18.8825 160.393L20.0381 159.015L20.8122 157.664L21.1403 156.33L20.9683 154.999L20.3291 153.655L19.2882 152.286L17.9086 150.883L16.2542 149.438L14.3906 147.946L12.3869 146.406L10.3155 144.818L8.25196 143.187L6.27328 141.519L4.45579 139.827L2.87205 138.122L1.58742 136.42L0.656401 134.738L0.11935 133.09L0 131.494L0.304088 129.962L1.01936 128.506L2.11696 127.131L3.55396 125.841L5.27674 124.636L7.22473 123.509L9.33414 122.455L11.5413 121.461L13.7854 120.516L16.0104 119.607L18.1665 118.718L20.2107 117.835L22.1067 116.945L23.8253 116.033L25.3434 115.085L26.6435 114.09L27.7135 113.037L28.5459 111.914L29.1373 110.712L29.4882 109.423L29.603 108.041L29.4898 106.559L29.1606 104.975L28.6316 103.287L27.9233 101.497L27.0613 99.6081L26.0763 97.6293L25.0044 95.5717L23.8872 93.4515L22.7715 91.2891L21.7085 89.1094L20.7523 86.9416L19.9585 84.8183L19.3814 82.7742L19.0711 80.8448L19.0705 79.0642L19.412 77.463L20.1153 76.0658L21.185 74.8899L22.61 73.943L24.3642 73.2232L26.4078 72.7183L28.6897 72.4069L31.1509 72.2596L33.7279 72.2405L36.3554 72.3089L38.9693 72.4214L41.5086 72.5329L43.9165 72.5975L46.1406 72.5695L48.1332 72.4031L49.8498 72.0518L51.2482 71.4676L52.2864 70.5995L52.9406 69.4086L53.2559 67.9141L53.2898 66.1485L53.0965 64.1451L52.7296 61.9398L52.2427 59.5719L51.6898 57.0851L51.1259 54.5279L50.6061 51.9526L50.1842 49.415L49.9114 46.9723L49.8336 44.6808L49.9897 42.5931L50.4091 40.7554L51.1099 39.2041L52.098 37.9641L53.3669 37.0467L54.8984 36.4497L56.664 36.1573L58.6279 36.1423L60.7486 36.3679L62.9826 36.7905L65.2863 37.3627L67.6179 38.0354L69.9398 38.7602L72.2187 39.4915L74.4265 40.1868L76.5407 40.8083L78.5436 41.3225L80.4227 41.701L82.1693 41.9196L83.7789 41.9583L85.2501 41.8014L86.5842 41.4365L87.7853 40.855L88.8594 40.0516L89.8145 39.0245L90.6606 37.7757L91.4095 36.3109L92.0746 34.6404L92.6713 32.7795L93.2167 30.7489L93.7295 28.5755L94.2303 26.2927L94.7409 23.9409L95.2841 21.567L95.8829 19.224L96.5602 16.9699L97.3371 14.8659L98.2323 12.9731L99.2605 11.3503L100.432 10.0496L101.75 9.11323L103.214 8.56995L104.814 8.43275L106.535 8.69735L108.359 9.34213L110.262 10.3294L112.218 11.6075L114.201 13.1143L116.186 14.7804L118.149 16.5321L120.07 18.2949L121.931 19.9954L123.72 21.5624L125.426 22.928L127.042 24.0265L128.565 24.7941L129.994 25.1667L131.33 25.0777L132.583 24.497L133.776 23.4776L134.931 22.0809L136.069 20.3675L137.207 18.3996L138.36 16.2424L139.541 13.9651L140.761 11.6405L142.027 9.3449L143.345 7.15555L144.716 5.14864L146.139 3.39584L147.608 1.96062L149.118 0.894665L150.656 0.234655L152.213 0L153.774 0.19182L155.329 0.793317L156.865 1.7715L158.374 3.08001L159.846 4.66263L161.278 6.45709L162.667 8.39871L164.012 10.4236L165.318 12.4712L166.587 14.4862L167.827 16.4193L169.043 18.2282L170.245 19.8774L171.44 21.338L172.639 22.5872L173.85 23.6077L175.083 24.3874L176.346 24.9187L177.647 25.1982L178.996 25.2264L180.398 25.0081L181.861 24.5516L183.389 23.87L184.985 22.9806L186.651 21.9059L188.387 20.6739L190.189 19.3184L192.05 17.8794L193.962 16.4027L195.909 14.9401L197.876 13.5478L199.842 12.2853L201.783 11.2129L203.674 10.389L205.489 9.86689L207.201 9.69095L208.788 9.89368L210.23 10.4929L211.513 11.4897L212.631 12.8685L213.583 14.5971L214.378 16.629L215.029 18.9066L215.559 21.364L215.993 23.9312L216.361 26.5367L216.695 29.1107L217.031 31.5866L217.403 33.9022L217.849 35.9997L218.404 37.8255L219.109 39.3286L220.003 40.4593L221.13 41.168L222.509 41.4536L224.119 41.3763L225.94 40.9972L227.945 40.3751L230.109 39.5691L232.4 38.6391L234.783 37.6468L237.218 36.6551L239.662 35.7272L242.068 34.9253L244.389 34.3079L246.577 33.9276L248.59 33.8283L250.389 34.0422L251.944 34.5885L253.237 35.4718L254.26 36.6824L255.015 38.197L255.517 39.9812L255.791 41.9917L255.868 44.1798L255.784 46.4946L255.581 48.885L255.298 51.303L254.978 53.7045L254.658 56.051L254.374 58.3099L254.158 60.4543L254.039 62.4635L254.04 64.3218L254.183 66.0185L254.486 67.5471L254.963 68.9046L255.624 70.0917L256.478 71.1117L257.53 71.9706L258.782 72.677L260.233 73.2421L261.877 73.6791L263.704 74.0043L265.702 74.2363L267.85 74.3967L270.123 74.5096L272.488 74.6021L274.909 74.7034L277.339 74.8448L279.729 75.0586L282.025 75.377L284.168 75.8307L286.103 76.4475L287.776 77.25L289.14 78.2545L290.159 79.4694L290.808 80.894L291.08 82.5188L290.982 84.3257L290.538 86.2889L289.787 88.3769L288.778 90.5544L287.572 92.7843L286.235 95.03L284.836 97.2562L283.445 99.4313L282.13 101.527L280.958 103.519L279.995 105.388L279.302 107.116L278.942 108.691L278.98 110.1L279.477 111.335L280.43 112.413L281.784 113.369L283.483 114.234L285.468 115.037L287.682 115.806L290.06 116.567L292.537 117.343L295.039 118.157L297.492 119.03L299.822 119.977L301.955 121.013L303.821 122.147L305.362 123.384L306.53 124.723L307.293 126.159L307.637 127.683L307.566 129.28L307.099 130.935L306.273 132.631L305.137 134.35L303.746 136.075L302.163 137.792L300.451 139.488L298.673 141.152L296.887 142.779L295.145 144.362L293.496 145.902L291.98 147.398L290.631 148.853L289.475 150.271L288.536 151.657L287.83 153.018L287.369 154.362L287.16 155.695L287.147 156.118Z" fill="#16558F"/>
</svg>
