<svg width="188" height="166" viewBox="0 0 188 166" fill="none" xmlns="http://www.w3.org/2000/svg">
<path fill-rule="evenodd" clip-rule="evenodd" d="M188 82.9969V82.9969L187.953 83.9394L187.811 84.8794L187.577 85.8141L187.249 86.7409L186.832 87.6575L186.325 88.5613L185.733 89.45L185.057 90.3215L184.301 91.1736L183.468 92.0045L182.563 92.8124L181.588 93.5957L180.55 94.353L179.452 95.0832L178.298 95.7851L177.094 96.4579L175.845 97.101L174.554 97.7138L173.228 98.2962L171.87 98.848L170.486 99.3692L169.08 99.8601L167.657 100.321L166.221 100.752L164.776 101.155L163.327 101.53L161.877 101.877L160.43 102.198L158.989 102.494L157.557 102.765L156.138 103.014L154.734 103.24L153.348 103.447L151.983 103.634L150.639 103.803L149.32 103.955L148.026 104.092L146.76 104.215L145.522 104.326L144.314 104.425L143.137 104.514L141.992 104.595L140.878 104.668L139.798 104.734L138.75 104.796L137.737 104.854L136.756 104.909L135.81 104.962L134.897 105.015L134.018 105.069L133.173 105.125L132.361 105.183L131.582 105.245L130.837 105.311L130.124 105.384L129.443 105.464L128.795 105.551L128.178 105.647L127.592 105.753L127.038 105.87L126.514 105.999L126.021 106.14L125.558 106.296L125.125 106.467L124.721 106.655L124.347 106.859L124.002 107.083L123.686 107.327L123.399 107.592L123.141 107.881L122.913 108.194L122.713 108.533L122.543 108.901L122.402 109.298L122.291 109.728L122.211 110.193L122.161 110.695L122.143 111.236L122.156 111.82L122.203 112.451L122.283 113.13L122.399 113.864L122.55 114.655L122.739 115.508L122.968 116.429L123.237 117.424L123.55 118.498L123.908 119.66L124.314 120.916L124.771 122.276L125.283 123.75L125.852 125.349L126.483 127.084L127.181 128.971L127.951 131.025L128.799 133.263L129.731 135.706L130.754 138.377L131.877 141.301L133.11 144.509L134.463 148.034L135.949 151.917L137.581 156.201L139.375 160.939L139.768 163.44L136.405 159.344L133.372 155.635L130.631 152.27L128.146 149.213L125.888 146.431L123.832 143.896L121.955 141.585L120.238 139.475L118.662 137.548L117.214 135.787L115.881 134.178L114.649 132.707L113.51 131.363L112.453 130.136L111.472 129.016L110.557 127.995L109.704 127.067L108.906 126.223L108.157 125.46L107.454 124.77L106.792 124.151L106.166 123.597L105.574 123.104L105.013 122.67L104.478 122.292L103.968 121.965L103.48 121.689L103.012 121.461L102.562 121.279L102.127 121.141L101.706 121.045L101.298 120.991L100.899 120.976L100.51 121.001L100.128 121.063L99.7524 121.163L99.3814 121.298L99.0137 121.469L98.6484 121.675L98.284 121.915L97.9195 122.19L97.5537 122.498L97.1856 122.839L96.8139 123.213L96.4377 123.62L96.0558 124.059L95.6673 124.53L95.271 125.033L94.8659 125.568L94.4511 126.134L94.0254 126.732L93.5878 127.361L93.1374 128.02L92.6731 128.71L92.1939 129.43L91.6988 130.18L91.1869 130.959L90.6572 131.767L90.1087 132.602L89.5405 133.465L88.9518 134.355L88.3415 135.27L87.7091 136.21L87.0535 137.173L86.3742 138.159L85.6705 139.165L84.9417 140.19L84.1873 141.233L83.4069 142.292L82.6001 143.364L81.7668 144.447L80.9067 145.539L80.0198 146.638L79.1063 147.74L78.1665 148.842L77.2007 149.943L76.2096 151.037L75.1939 152.123L74.1544 153.195L73.0924 154.252L72.0091 155.288L70.9059 156.3L69.7846 157.284L68.647 158.235L67.4951 159.151L66.3313 160.025L65.1578 160.856L63.9774 161.637L62.7928 162.366L61.6069 163.039L60.4227 163.651L59.2434 164.199L58.0724 164.68L56.9128 165.091L55.7681 165.429L54.6418 165.69L53.5373 165.874L52.458 165.978L51.4072 166L50.3883 165.94L49.4045 165.796L48.4586 165.568L47.5538 165.257L46.6927 164.863L45.8777 164.387L45.1111 163.829L44.3951 163.193L43.7313 162.48L43.1212 161.692L42.566 160.833L42.0667 159.905L41.6239 158.912L41.2378 157.858L40.9085 156.747L40.6358 155.582L40.419 154.368L40.2574 153.11L40.1499 151.811L40.0951 150.477L40.0915 149.112L40.1374 147.72L40.2308 146.306L40.3696 144.875L40.5516 143.43L40.7743 141.975L41.0355 140.515L41.3324 139.054L41.6624 137.594L42.023 136.14L42.4115 134.695L42.8251 133.261L43.2613 131.842L43.7174 130.44L44.1908 129.057L44.679 127.696L45.1795 126.358L45.69 125.045L46.208 123.759L46.7315 122.5L47.2582 121.27L47.7861 120.069L48.3133 118.899L48.8379 117.76L49.3582 116.652L49.8725 115.576L50.3793 114.531L50.8771 113.518L51.3645 112.537L51.8403 111.587L52.3031 110.668L52.752 109.779L53.1858 108.921L53.6035 108.092L54.0041 107.293L54.3869 106.522L54.7508 105.779L55.0953 105.063L55.4193 104.373L55.7223 103.71L56.0035 103.071L56.2622 102.456L56.4976 101.864L56.7092 101.295L56.896 100.748L57.0575 100.222L57.1929 99.7162L57.3014 99.2296L57.3822 98.7616L57.4344 98.3113L57.4571 97.8781L57.4493 97.4611L57.41 97.0595L57.338 96.6727L57.232 96.2997L57.0908 95.9399L56.9128 95.5925L56.6965 95.2566L56.4401 94.9316L56.1416 94.6166L55.799 94.3109L55.41 94.0135L54.972 93.7238L54.4821 93.4408L53.9374 93.1636L53.3344 92.8914L52.6693 92.6231L51.938 92.3577L51.1359 92.0941L50.2578 91.8312L49.2981 91.5676L48.2506 91.3021L47.1082 91.033L45.8631 90.7588L44.5067 90.4777L43.0292 90.1876L41.4198 89.8863L39.6663 89.5713L37.7549 89.2397L35.6703 88.8884L33.3951 88.5137L30.9095 88.1115L28.1914 87.677L25.2154 87.2047L21.9526 86.6884L18.3702 86.1208L14.4304 85.4935L10.09 84.7965L5.29904 84.0184L0 83.1456L3.66927 82.2424L8.61539 81.4357L13.0936 80.7142L17.156 80.0658L20.8479 79.4802L24.2087 78.9484L27.2727 78.4628L30.0701 78.0169L32.6272 77.605L34.9671 77.222L37.1105 76.8636L39.0753 76.5261L40.8775 76.2062L42.5314 75.9008L44.0497 75.6074L45.4436 75.3236L46.7231 75.0475L47.8974 74.777L48.9743 74.5104L49.9613 74.2464L50.8647 73.9834L51.6904 73.7202L52.4438 73.4555L53.1295 73.1882L53.7518 72.9173L54.3147 72.6418L54.8217 72.3608L55.2759 72.0733L55.6803 71.7785L56.0374 71.4755L56.3497 71.1635L56.6193 70.8418L56.8482 70.5095L57.0382 70.1658L57.1909 69.81L57.308 69.4413L57.3907 69.059L57.4403 68.6622L57.458 68.2502L57.4449 67.8222L57.402 67.3775L57.3302 66.9152L57.2305 66.4346L57.1035 65.9349L56.9503 65.4153L56.7714 64.8749L56.5676 64.313L56.3397 63.7288L56.0884 63.1215L55.8143 62.4904L55.5182 61.8345L55.2007 61.1532L54.8627 60.4457L54.5049 59.7113L54.128 58.9493L53.733 58.159L53.3206 57.3398L52.8918 56.4911L52.4477 55.6123L51.9892 54.7031L51.5174 53.7629L51.0336 52.7914L50.5389 51.7885L50.0349 50.754L49.5228 49.6877L49.0042 48.5899L48.4808 47.4607L47.9542 46.3005L47.4263 45.1097L46.899 43.889L46.3743 42.6392L45.8543 41.3614L45.3411 40.0567L44.8372 38.7265L44.3448 37.3725L43.8664 35.9963L43.4045 34.6002L42.9617 33.1862L42.5406 31.757L42.1439 30.3151L41.7741 28.8636L41.434 27.4055L41.1263 25.9443L40.8535 24.4834L40.6182 23.0268L40.423 21.5781L40.2702 20.1417L40.1621 18.7217L40.1008 17.3223L40.0885 15.9482L40.1268 14.6037L40.2173 13.2934L40.3616 12.0218L40.5607 10.7933L40.8155 9.61253L41.1268 8.48363L41.4947 7.41082L41.9195 6.39809L42.4009 5.44921L42.9383 4.56772L43.531 3.75688L44.1779 3.01962L44.8775 2.35856L45.6281 1.77594L46.4279 1.27365L47.2746 0.85314L48.1659 0.515485L49.0989 0.261329L50.071 0.090896L51.0791 0.0039903L52.12 0L53.1906 0.0779069L54.2875 0.2363L55.4072 0.473392L56.5464 0.787041L57.7016 1.17477L58.8694 1.63381L60.0464 2.16109L61.2294 2.75333L62.4151 3.40699L63.6004 4.11839L64.7825 4.88367L65.9584 5.69888L67.1256 6.55996L68.2815 7.46281L69.4239 8.40331L70.5506 9.37734L71.6597 10.3808L72.7496 11.4097L73.8185 12.46L74.8653 13.5279L75.8887 14.6097L76.8878 15.7017L77.8617 16.8005L78.8098 17.9028L79.7317 19.0053L80.6271 20.1053L81.4957 21.1997L82.3376 22.2861L83.1528 23.3619L83.9415 24.4249L84.7042 25.473L85.4411 26.5042L86.1527 27.5167L86.8398 28.509L87.5028 29.4795L88.1425 30.4269L88.7597 31.3501L89.3553 32.248L89.9299 33.1196L90.4846 33.964L91.0202 34.7807L91.5377 35.5688L92.038 36.3279L92.5221 37.0575L92.991 37.757L93.4458 38.4263L93.8873 39.0648L94.3167 39.6725L94.7349 40.2489L95.1429 40.7938L95.5419 41.3071L95.9328 41.7886L96.3167 42.2379L96.6946 42.6549L97.0676 43.0394L97.4368 43.391L97.8032 43.7095L98.168 43.9946L98.5322 44.2458L98.8972 44.4628L99.2639 44.645L99.6338 44.7919L100.008 44.9028L100.388 44.977L100.775 45.0136L101.17 45.0118L101.575 44.9703L101.992 44.8881L102.422 44.7637L102.867 44.5957L103.329 44.3823L103.811 44.1217L104.313 43.8117L104.84 43.45L105.392 43.0339L105.974 42.5604L106.589 42.0264L107.239 41.4281L107.929 40.7615L108.662 40.0221L109.444 39.2048L110.279 38.3039L111.173 37.3133L112.133 36.2258L113.165 35.0336L114.277 33.7278L115.478 32.2986L116.778 30.7347L118.188 29.0238L119.721 27.1515L121.392 25.102L123.216 22.8571L125.213 20.3961L127.404 17.6958L129.813 14.7292L132.469 11.4659L135.405 7.87063L138.658 3.90306L139.983 3.44073L138.134 8.33567L136.452 12.7584L134.922 16.7635L133.528 20.3982L132.258 23.7033L131.101 26.7146L130.046 29.4631L129.086 31.9759L128.212 34.277L127.419 36.3874L126.698 38.3254L126.046 40.1076L125.458 41.7484L124.928 43.2607L124.454 44.6559L124.032 45.9444L123.659 47.1352L123.332 48.2367L123.049 49.256L122.808 50.1999L122.606 51.0743L122.443 51.8847L122.316 52.6358L122.225 53.3322L122.168 53.9778L122.144 54.5763L122.152 55.131L122.192 55.6451L122.263 56.1212L122.364 56.562L122.495 56.9698L122.656 57.3467L122.846 57.6949L123.065 58.0162L123.314 58.3123L123.591 58.5848L123.898 58.8353L124.234 59.0652L124.599 59.2759L124.993 59.4687L125.417 59.6448L125.87 59.8053L126.354 59.9514L126.868 60.0842L127.412 60.2047L127.988 60.3141L128.595 60.4133L129.233 60.5033L129.903 60.5851L130.606 60.6598L131.341 60.7284L132.109 60.7918L132.911 60.8511L133.745 60.9072L134.614 60.9614L135.516 61.0145L136.451 61.0677L137.421 61.1222L138.424 61.1789L139.461 61.2392L140.531 61.3041L141.633 61.3749L142.769 61.4528L143.936 61.5391L145.134 61.635L146.362 61.7417L147.62 61.8608L148.905 61.9933L150.216 62.1408L151.552 62.3044L152.911 62.4855L154.291 62.6855L155.689 62.9056L157.104 63.1471L158.531 63.4112L159.97 63.6991L161.415 64.0119L162.865 64.3507L164.315 64.7164L165.762 65.1099L167.201 65.5321L168.629 65.9836L170.041 66.4649L171.432 66.9764L172.799 67.5184L174.136 68.0911L175.438 68.6943L176.701 69.3278L177.92 69.9912L179.09 70.6839L180.207 71.4052L181.264 72.1539L182.26 72.9291L183.187 73.7294L184.043 74.5531L184.824 75.3987L185.526 76.2642L186.146 77.1477L186.68 78.0469L187.126 78.9596L187.482 79.8835L187.747 80.816L187.918 81.7545L187.995 82.6965L188 82.9969Z" fill="#0583D2"/>
</svg>
