<?xml version="1.0" encoding="UTF-8" standalone="no"?>
<!-- Created with Inkscape (http://www.inkscape.org/) -->

<svg
   width="136.2209mm"
   height="127.47664mm"
   viewBox="0 0 136.2209 127.47664"
   version="1.1"
   id="svg1"
   xml:space="preserve"
   sodipodi:docname="TuFind Logo.svg"
   inkscape:export-filename="TuFind Logo.png"
   inkscape:export-xdpi="96"
   inkscape:export-ydpi="96"
   inkscape:version="1.3 (0e150ed6c4, 2023-07-21)"
   xmlns:inkscape="http://www.inkscape.org/namespaces/inkscape"
   xmlns:sodipodi="http://sodipodi.sourceforge.net/DTD/sodipodi-0.dtd"
   xmlns="http://www.w3.org/2000/svg"
   xmlns:svg="http://www.w3.org/2000/svg"><sodipodi:namedview
     id="namedview1"
     pagecolor="#ffffff"
     bordercolor="#000000"
     borderopacity="0.25"
     inkscape:showpageshadow="2"
     inkscape:pageopacity="0.0"
     inkscape:pagecheckerboard="0"
     inkscape:deskcolor="#d1d1d1"
     inkscape:document-units="mm"
     inkscape:zoom="1.2287219"
     inkscape:cx="257.17781"
     inkscape:cy="240.90073"
     inkscape:window-width="1440"
     inkscape:window-height="830"
     inkscape:window-x="-6"
     inkscape:window-y="-6"
     inkscape:window-maximized="1"
     inkscape:current-layer="layer1" /><defs
     id="defs1" /><g
     inkscape:label="Layer 1"
     inkscape:groupmode="layer"
     id="layer1"
     transform="translate(-36.485509,-33.211158)"><g
       id="g2"
       transform="translate(0.54472742,-0.97712449)"><path
         style="fill:#0583d2;fill-opacity:1"
         d="M 101.54455,117.83658 C 91.728839,110.48492 68.69476,101.48687 52.500227,98.098711 48.389644,97.23871 42.688408,96.657319 41.872415,96.870706 c -0.888568,0.232366 0.556802,-1.834474 1.53552,-2.191057 4.512848,-1.644196 20.31408,1.171347 32.868143,5.856611 1.779841,0.66425 3.349261,1.20772 3.487601,1.20772 0.388468,0 10.341457,4.17331 11.041217,4.6296 0.340689,0.22216 1.42734,0.72053 2.414779,1.10751 2.096692,0.82169 6.619441,3.44646 8.917535,5.17528 0.88294,0.66422 1.7898,1.20768 2.01525,1.20768 0.22546,0 0.92258,-0.43233 1.54917,-0.96074 3.09001,-2.60582 14.82662,-8.28694 23.35672,-11.30584 11.95749,-4.231893 19.74423,-6.219037 27.89084,-7.117622 5.72545,-0.631528 9.35619,0.002 9.35619,1.63266 0,0.309503 0.20199,0.841263 0.46532,0.893831 0.26333,0.05257 -0.74742,-0.04802 -2.27079,-0.02614 -7.59063,0.109014 -22.66616,4.004641 -35.85333,9.298251 -8.79317,3.52976 -17.87072,8.19842 -22.68207,11.75509 -1.0767,0.79592 -2.01775,1.44713 -2.09123,1.44713 -0.0735,0 -1.12141,-0.73984 -2.32873,-1.64409 z m 3.53163,-10.10647 c -0.49487,-1.09745 -2.09027,-4.7889 -3.54533,-8.20321 -1.45506,-3.414312 -3.066583,-7.10763 -3.581164,-8.207376 -1.380036,-2.949364 -1.161489,-5.008805 0.619273,-5.835611 1.042466,-0.484016 43.425971,-0.444722 44.929051,0.04165 0.70042,0.226646 1.11253,0.614947 1.41114,1.32963 0.39419,0.94344 0.36527,1.149248 -0.44208,3.145455 -1.88001,4.648378 -2.03204,4.915752 -2.90466,5.108513 -3.44589,0.761186 -15.50435,4.974699 -21.07679,7.364719 -3.35977,1.44101 -10.24871,4.93809 -12.25188,6.2195 -0.8874,0.56766 -1.75843,1.03211 -1.93562,1.03211 -0.1772,0 -0.72707,-0.89792 -1.22194,-1.99538 z m 12.34516,-28.33034 c -7.92374,-1.91792 -13.01043,-10.60398 -10.69805,-18.268032 2.2385,-7.41919 9.44999,-11.900787 16.98355,-10.554466 5.2098,0.931044 9.52044,4.674102 11.28266,9.797077 0.8823,2.564956 0.89335,6.43845 0.0261,9.147999 -2.35992,7.372996 -10.06652,11.699488 -17.59424,9.877422 z"
         id="path3"
         sodipodi:nodetypes="sssssssssssssssssssssssssssssssssssssss" /><path
         style="fill:#16558f;fill-opacity:1"
         d="m 102.57557,160.91845 c -6.790814,-3.49006 -18.614564,-7.43049 -29.389726,-9.79454 -7.447434,-1.63395 -8.125477,-1.76428 -11.674681,-2.24392 -1.951035,-0.26366 -4.211401,-0.56899 -5.023037,-0.67851 l -1.4757,-0.19913 -1.080032,-2.65809 c -0.594018,-1.46196 -1.219804,-2.99067 -1.390636,-3.39713 -0.170832,-0.40647 -1.365958,-3.39953 -2.655837,-6.65126 -1.289878,-3.25172 -3.304825,-8.30668 -4.477659,-11.23323 -1.172835,-2.92655 -2.600507,-6.51823 -3.172605,-7.98151 -0.572098,-1.46327 -1.214214,-3.05957 -1.426924,-3.54733 -0.21271,-0.48776 -0.877836,-2.15057 -1.478056,-3.69514 -0.600221,-1.54457 -1.268149,-3.20739 -1.484283,-3.69514 -1.151208,-2.59798 -1.905612,-4.77468 -1.905612,-5.498325 0,-1.092628 1.157813,-1.963999 2.903016,-2.184813 0.760842,-0.09627 1.860391,-0.316648 2.443443,-0.489736 2.245167,-0.666515 11.239691,0.793398 20.235861,3.284504 14.960722,4.14274 31.739638,11.46678 39.599978,17.28548 1.1381,0.84249 2.23905,1.63366 2.44654,1.75816 0.23591,0.14154 1.12201,-0.3242 2.3649,-1.24302 10.98816,-8.12306 35.55827,-17.79278 52.03143,-20.477304 7.79915,-1.270976 13.85737,-0.530456 14.19553,1.735178 0.069,0.462227 -17.06904,44.046936 -18.89939,48.064106 -0.28283,0.62076 -0.59738,0.75518 -2.14293,0.91579 -13.26783,1.37873 -32.94064,6.657 -43.51819,11.67605 l -3.57291,1.69535 z m -7.514227,-55.02204 c -4.529467,-2.51055 -10.681374,-5.11293 -18.740401,-7.834107 -3.093737,-0.821547 -3.45427,-3.261852 -4.590151,-5.860994 -5.439492,-12.381185 -8.593766,-19.91585 -8.593766,-20.528063 0,-1.096849 0.542151,-1.864952 1.640162,-2.32373 1.391889,-0.581568 38.915323,-0.628147 39.375093,-0.04888 0.1613,0.203233 0.46489,0.901615 0.67464,1.55196 0.50487,1.565408 1.62875,3.561961 2.84598,5.055838 0.54355,0.66709 0.97979,1.465241 0.96943,1.773668 -0.0104,0.308428 -0.50921,1.558466 -1.10855,2.777863 l -1.0897,2.217085 H 102.137 c -4.203981,0 -4.336528,0.01947 -5.536874,0.813261 -1.457189,0.963642 -2.423911,2.69474 -2.423911,4.340466 0,1.26378 0.910337,3.746425 3.042194,8.296589 1.925339,4.109374 1.902565,3.783006 0.49648,7.115204 -0.682948,1.61847 -1.326974,2.99537 -1.431168,3.05976 -0.104194,0.0644 -0.654264,-0.11826 -1.222378,-0.40592 z M 85.751292,63.415765 c -5.234593,-0.659714 -9.637353,-3.820975 -11.870416,-8.523171 -0.899494,-1.894078 -1.087178,-2.645817 -1.213438,-4.860221 -0.198881,-3.488079 0.306944,-6.025919 1.659451,-8.325852 1.683257,-2.862369 3.254382,-4.414142 5.885526,-5.813027 2.915128,-1.54987 5.662123,-2.004993 9.176217,-1.52032 9.702074,1.338134 15.194268,11.954257 10.815078,20.904992 -1.059892,2.166342 -3.864213,5.086712 -5.944351,6.190341 -2.663491,1.413131 -6.243967,2.232602 -8.508067,1.947258 z"
         id="path2"
         sodipodi:nodetypes="sssscsssssssssssssssssssscscssssssssscsssssscsssssssss" /></g></g></svg>
